# xmcd
#
# Track frame offsets:
#	150
#	14062
#	30181
#	49125
#	62657
#	75320
#	88429
#	102147
#	116763
#	132318
#	150296
#	163587
#	181334
#
# Disc length: 2631 seconds
#
# Revision: 1
# Processed by: cddbd v1.5.1PL0 Copyright (c) Steve Scherf et al.
# Submitted via: audiograbber 1.83.01
#
DISCID=9c0a450d
DTITLE=Jill Johnsson - Being who you are
DYEAR=2005
DGENRE=Country
TTITLE0=God bless a girl in love
TTITLE1=So much love to make
TTITLE2=A little bit more
TTITLE3=Baby you're mine
TTITLE4=Ringing bells
TTITLE5=When being who you are
TTITLE6=The heartache won't be mine
TTITLE7=I don't wanna be that girl
TTITLE8=You can have it all
TTITLE9=Some people are just not cool
TTITLE10=(i'm not) in love with you
TTITLE11=Without your love
TTITLE12=Redneck woman
EXTD=
EXTT0=
EXTT1=
EXTT2=
EXTT3=
EXTT4=
EXTT5=
EXTT6=
EXTT7=
EXTT8=
EXTT9=
EXTT10=
EXTT11=
EXTT12=
PLAYORDER=
